<?xml version="1.0" encoding="utf-8"?>
<!-- Generator: Adobe Illustrator 16.0.0, SVG Export Plug-In . SVG Version: 6.00 Build 0)  -->
<!DOCTYPE svg PUBLIC "-//W3C//DTD SVG 1.1//EN" "http://www.w3.org/Graphics/SVG/1.1/DTD/svg11.dtd">
<svg version="1.1" id="Layer_1" xmlns="http://www.w3.org/2000/svg" xmlns:xlink="http://www.w3.org/1999/xlink" x="0px" y="0px"
	 width="425.74px" height="186.494px" viewBox="0 0 425.74 186.494" enable-background="new 0 0 425.74 186.494"
	 xml:space="preserve">
<path fill="#4A96D2" d="M0,67.54c26.392-26.067,69.21-39.881,102.328-22.344c6.423,3.401,12.444,7.944,17.857,13.754
	c3.06,2.821,6.359,4.86,9.9,6.12c3.54,1.26,7.38,1.89,11.52,1.89c3.299,0,6.435-0.42,9.405-1.26c2.971-0.839,5.58-2.129,7.83-3.87
	c2.25-1.74,4.035-3.929,5.355-6.57c1.318-2.64,1.98-5.729,1.98-9.27c0-3.719-0.721-6.689-2.16-8.91
	c-1.441-2.219-3.256-3.99-5.445-5.31c-2.191-1.319-4.545-2.34-7.064-3.06c-2.521-0.72-4.876-1.44-7.066-2.16
	c-2.191-0.72-4.005-1.589-5.445-2.61c-1.44-1.02-2.16-2.489-2.16-4.41c0-1.2,0.3-2.219,0.9-3.06c0.599-0.839,1.38-1.515,2.34-2.025
	c0.959-0.509,1.98-0.884,3.06-1.125c1.08-0.239,2.129-0.36,3.15-0.36c1.739,0,3.584,0.346,5.535,1.035
	c1.949,0.691,3.494,1.755,4.635,3.195l9.631-10.53c-2.701-2.399-5.73-4.109-9.092-5.13C153.635,0.51,150.156,0,146.556,0
	c-3.121,0-6.151,0.436-9.09,1.305c-2.941,0.871-5.535,2.176-7.785,3.915c-2.25,1.741-4.05,3.901-5.4,6.48
	c-1.35,2.581-2.025,5.58-2.025,9c0,3.541,0.734,6.39,2.205,8.55c1.47,2.16,3.314,3.901,5.535,5.22c2.219,1.321,4.62,2.371,7.2,3.15
	c2.579,0.781,4.979,1.561,7.2,2.34c2.219,0.78,4.064,1.726,5.535,2.835c1.471,1.111,2.205,2.625,2.205,4.545
	c0,1.141-0.285,2.13-0.855,2.97c-0.57,0.841-1.32,1.53-2.249,2.07c-0.931,0.54-1.98,0.945-3.15,1.215
	c-1.17,0.27-2.326,0.405-3.465,0.405c-2.34,0-4.605-0.525-6.795-1.575c-2.191-1.049-4.616-2.9-6.445-4.455
	c-6.002-5.103-12.774-9.343-19.991-12.671C90.753,26.8,69.42,26.257,50.61,30.502C33.261,34.417,4.761,53.88,0,67.54z"/>
<path fill="#4A96D2" d="M175.615,1.82h23.67c3.299,0,6.419,0.301,9.359,0.9c2.939,0.6,5.504,1.635,7.695,3.105
	c2.189,1.471,3.929,3.451,5.22,5.94c1.29,2.49,1.936,5.625,1.936,9.405c0,3.721-0.601,6.84-1.801,9.36
	c-1.2,2.52-2.85,4.531-4.949,6.03c-2.102,1.5-4.591,2.565-7.471,3.195c-2.88,0.63-6,0.945-9.359,0.945h-10.261v24.84h-14.039V1.82z
	 M189.654,28.82h9.36c1.26,0,2.476-0.119,3.646-0.36c1.17-0.239,2.219-0.644,3.149-1.215c0.93-0.57,1.68-1.35,2.25-2.34
	c0.569-0.99,0.855-2.235,0.855-3.735c0-1.62-0.376-2.925-1.125-3.915c-0.751-0.99-1.71-1.755-2.88-2.295s-2.476-0.884-3.915-1.035
	c-1.44-0.149-2.821-0.225-4.141-0.225h-7.2V28.82z"/>
<path fill="#4A96D2" d="M231.833,1.82h14.04v63.72h-14.04V1.82z"/>
<path fill="#4A96D2" d="M258.652,1.82h24.659c3.24,0,6.314,0.315,9.226,0.945c2.909,0.63,5.459,1.68,7.649,3.15
	c2.189,1.471,3.93,3.451,5.221,5.94c1.289,2.491,1.935,5.596,1.935,9.315c0,4.5-1.17,8.325-3.51,11.475s-5.76,5.146-10.26,5.985
	l16.199,26.91h-16.83l-13.319-25.47h-6.931v25.47h-14.039V1.82z M272.691,28.19h8.28c1.26,0,2.595-0.045,4.005-0.135
	c1.409-0.09,2.685-0.36,3.825-0.81c1.14-0.45,2.084-1.155,2.835-2.115c0.75-0.959,1.125-2.309,1.125-4.05
	c0-1.62-0.33-2.91-0.99-3.87c-0.66-0.959-1.5-1.694-2.52-2.205c-1.021-0.509-2.191-0.855-3.51-1.035c-1.32-0.18-2.61-0.27-3.87-0.27
	h-9.181V28.19z"/>
<path fill="#4A96D2" d="M337.941,1.82h11.609l27.721,63.72h-15.84l-5.49-13.5h-24.75l-5.311,13.5h-15.479L337.941,1.82z
	 M343.341,20.36l-7.739,19.8h15.569L343.341,20.36z"/>
<path fill="#4A96D2" d="M384.2,1.82h14.04v50.76h26.011v12.96H384.2V1.82z"/>
<g>
	<path fill="#4A96D2" d="M176.083,121.153h43.29v12.96h-29.25v11.88h27.631v12.96h-27.631v12.96h30.87v12.96h-44.91V121.153z"/>
	<path fill="#4A96D2" d="M235.483,121.153h21.06c5.099,0,9.945,0.571,14.535,1.71c4.59,1.14,8.595,2.985,12.015,5.535
		c3.42,2.551,6.134,5.866,8.146,9.945c2.009,4.081,3.015,9.031,3.015,14.85c0,5.162-0.976,9.707-2.925,13.636
		c-1.95,3.931-4.576,7.231-7.875,9.899c-3.301,2.671-7.11,4.695-11.431,6.076c-4.319,1.381-8.851,2.069-13.59,2.069h-22.949V121.153
		z M249.522,171.914h7.29c3.24,0,6.256-0.329,9.046-0.99c2.789-0.659,5.204-1.755,7.244-3.285c2.039-1.529,3.646-3.539,4.815-6.029
		c1.17-2.489,1.755-5.535,1.755-9.135c0-3.119-0.585-5.835-1.755-8.146c-1.17-2.31-2.745-4.215-4.725-5.715
		c-1.98-1.499-4.307-2.624-6.976-3.375c-2.67-0.75-5.476-1.125-8.415-1.125h-8.28V171.914z"/>
	<path fill="#4A96D2" d="M364.722,180.374c-4.14,2.16-8.46,3.721-12.96,4.681c-4.5,0.959-9.09,1.439-13.77,1.439
		c-4.981,0-9.571-0.781-13.771-2.34c-4.2-1.56-7.83-3.795-10.89-6.705c-3.061-2.91-5.445-6.436-7.155-10.575
		s-2.565-8.76-2.565-13.86c0-5.099,0.855-9.72,2.565-13.859c1.71-4.141,4.095-7.664,7.155-10.575c3.06-2.91,6.689-5.144,10.89-6.705
		c4.199-1.56,8.789-2.34,13.771-2.34c5.099,0,9.794,0.616,14.085,1.845c4.289,1.23,8.055,3.346,11.295,6.345l-9.9,10.799
		c-1.921-1.979-4.081-3.479-6.479-4.5c-2.401-1.02-5.4-1.529-9-1.529c-3.001,0-5.716,0.51-8.146,1.529
		c-2.43,1.021-4.516,2.446-6.255,4.275c-1.741,1.831-3.075,4.006-4.005,6.525c-0.931,2.52-1.396,5.251-1.396,8.189
		c0,3.002,0.465,5.746,1.396,8.235c0.93,2.49,2.264,4.65,4.005,6.479c1.739,1.832,3.825,3.256,6.255,4.275
		c2.43,1.021,5.145,1.53,8.146,1.53c3.06,0,5.699-0.345,7.92-1.035c2.219-0.688,3.989-1.396,5.31-2.115v-10.35h-11.43v-12.96h24.93
		V180.374z"/>
	<path fill="#4A96D2" d="M380.83,121.153h43.29v12.96h-29.25v11.88h27.631v12.96H394.87v12.96h30.87v12.96h-44.91V121.153z"/>
</g>
<path fill="#4A96D2" d="M26.074,66.672C45.79,52.006,73.071,48.26,94.29,60.964c10.222,6.121,18.369,15.527,22.657,26.67
	c4.474,11.625,4.559,24.772-0.172,36.333c-4.487,10.964-13.183,19.987-24.128,24.593c-5.511,2.318-11.491,3.463-17.467,3.395
	c-2.934-0.034-5.854-0.362-8.735-0.907c-1.297-0.247-2.585-0.538-3.874-0.829c-0.725-0.163-2.894-0.955-3.526-0.348
	c-1.008,0.97,4.708,4.182,5.261,4.464c2.567,1.308,5.302,2.253,8.105,2.905c5.86,1.364,12.013,1.365,17.91,0.225
	c11.891-2.299,22.571-9.233,29.991-18.741c7.345-9.438,11.43-21.15,11.861-33.082c0.229-6.321-0.551-12.665-2.251-18.755
	c-0.815-2.922-1.842-5.779-3.045-8.563c-0.369-0.854-1.489-2.35-0.914-3.295c0.52-0.855,1.556-0.86,2.428-0.86
	c25.134,0,50.267,0,75.401,0c21.957,0,43.915,0,65.872,0c18.479,0,36.956,0,55.435,0c14.695,0,29.391,0,44.086,0
	c10.609,0,21.219,0,31.828,0c6.221,0,12.441,0,18.662,0c1.369,0,2.739,0,4.108,0c0.233,0,0.466,0,0.699,0
	c0.07,0,0.031,1.583,0.031,1.708c0,11.188,0,22.375,0,33.562c0,1.243,0,2.486,0,3.729c-2.012,0-4.024,0-6.036,0c-6,0-12,0-18,0
	c-9.934,0-19.867,0-29.802,0c-13.813,0-27.628,0-41.441,0c-17.64,0-35.28,0-52.92,0c-21.412,0-42.824,0-64.236,0
	c-12.104,0-24.208,0-36.311,0c-6.398,0-12.796,0-19.195,0c-3.285,0-6.571,0-9.856,0c-2.131,0-4.246-0.044-6.363,0.239
	c-0.832,0.111-1.683,0.247-2.474,0.537c-0.975,0.358-0.984,0.823-1.18,1.806c-0.572,2.868-1.258,5.702-2.159,8.486
	c-1.719,5.318-4.135,10.404-7.195,15.082c-6.853,10.474-16.956,18.75-28.708,23.123c-11.219,4.175-23.799,4.701-35.231,1.028
	c-11.616-3.731-21.75-11.599-27.756-22.277c-6.001-10.672-7.486-23.759-3.222-35.321c4.183-11.342,13.818-20.518,25.845-22.851
	c11.766-2.283,25.178,2.872,29.881,14.486c2.215,5.472,2.035,12.088-1.535,16.959c-3.01,4.118-10.479,7.532-14.371,2.525
	c-0.864-1.111-1.175-2.509-0.893-3.887c0.309-1.512,0.983-2.687,0.473-4.274c-0.914-2.839-4.101-4.087-6.863-3.881
	c-6,0.449-10.071,6.119-10.955,11.665c-1.987,12.467,8.864,22.743,20.389,24.682c12.148,2.045,24.313-3.931,31.44-13.699
	c7.293-9.996,9.097-23.145,5.712-34.942c-3.327-11.594-11.427-21.44-21.841-27.424c-10.623-6.104-23.265-8.074-35.295-5.957
	C22.903,64.866,6.109,89.304,6.011,89.501C6.011,89.501,10.844,78.001,26.074,66.672z"/>
</svg>
